<svg width="32" height="32" viewBox="0 0 32 32" fill="none" xmlns="http://www.w3.org/2000/svg">
<path d="M13.2939 7.43605L14.0969 9.66605C14.5375 10.8886 15.2424 11.9988 16.1613 12.9177C17.0801 13.8366 18.1904 14.5414 19.4129 14.982L21.6429 15.785C21.6869 15.8012 21.725 15.8305 21.7518 15.8689C21.7787 15.9074 21.7931 15.9531 21.7931 16C21.7931 16.0469 21.7787 16.0927 21.7518 16.1312C21.725 16.1696 21.6869 16.1989 21.6429 16.215L19.4129 17.018C18.1904 17.4587 17.0801 18.1635 16.1613 19.0824C15.2424 20.0013 14.5375 21.1115 14.0969 22.334L13.2939 24.564C13.2778 24.6081 13.2485 24.6461 13.21 24.6729C13.1716 24.6998 13.1258 24.7142 13.0789 24.7142C13.032 24.7142 12.9862 24.6998 12.9478 24.6729C12.9093 24.6461 12.8801 24.6081 12.8639 24.564L12.0609 22.334C11.6203 21.1115 10.9154 20.0013 9.99655 19.0824C9.07768 18.1635 7.96741 17.4587 6.7449 17.018L4.5149 16.215C4.47087 16.1989 4.43286 16.1696 4.406 16.1312C4.37915 16.0927 4.36475 16.0469 4.36475 16C4.36475 15.9531 4.37915 15.9074 4.406 15.8689C4.43286 15.8305 4.47087 15.8012 4.5149 15.785L6.7449 14.982C7.96741 14.5414 9.07768 13.8366 9.99655 12.9177C10.9154 11.9988 11.6203 10.8886 12.0609 9.66605L12.8639 7.43605C12.8796 7.39157 12.9087 7.35305 12.9472 7.32581C12.9857 7.29856 13.0317 7.28393 13.0789 7.28393C13.1261 7.28393 13.1721 7.29856 13.2106 7.32581C13.2491 7.35305 13.2782 7.39157 13.2939 7.43605ZM23.3319 2.07705L23.7389 3.20605C23.9622 3.82502 24.3192 4.38715 24.7845 4.85245C25.2498 5.31774 25.8119 5.67474 26.4309 5.89805L27.5599 6.30505C27.5823 6.31319 27.6016 6.32802 27.6152 6.34752C27.6289 6.36702 27.6362 6.39024 27.6362 6.41405C27.6362 6.43785 27.6289 6.46108 27.6152 6.48058C27.6016 6.50008 27.5823 6.5149 27.5599 6.52305L26.4309 6.93005C25.8119 7.15335 25.2498 7.51036 24.7845 7.97565C24.3192 8.44094 23.9622 9.00307 23.7389 9.62205L23.3319 10.751C23.3238 10.7734 23.3089 10.7927 23.2894 10.8064C23.2699 10.82 23.2467 10.8274 23.2229 10.8274C23.1991 10.8274 23.1759 10.82 23.1564 10.8064C23.1369 10.7927 23.1221 10.7734 23.1139 10.751L22.7069 9.62205C22.4836 9.00307 22.1266 8.44094 21.6613 7.97565C21.196 7.51036 20.6339 7.15335 20.0149 6.93005L18.8859 6.52305C18.8635 6.5149 18.8442 6.50008 18.8306 6.48058C18.8169 6.46108 18.8096 6.43785 18.8096 6.41405C18.8096 6.39024 18.8169 6.36702 18.8306 6.34752C18.8442 6.32802 18.8635 6.31319 18.8859 6.30505L20.0149 5.89805C20.6339 5.67474 21.196 5.31774 21.6613 4.85245C22.1266 4.38715 22.4836 3.82502 22.7069 3.20605L23.1139 2.07705C23.1221 2.05468 23.1369 2.03536 23.1564 2.02171C23.1759 2.00806 23.1991 2.00073 23.2229 2.00073C23.2467 2.00073 23.2699 2.00806 23.2894 2.02171C23.3089 2.03536 23.3238 2.05468 23.3319 2.07705ZM23.3319 21.25L23.7389 22.379C23.9622 22.998 24.3192 23.5602 24.7845 24.0254C25.2498 24.4907 25.8119 24.8477 26.4309 25.071L27.5599 25.478C27.5823 25.4862 27.6016 25.501 27.6152 25.5205C27.6289 25.54 27.6362 25.5632 27.6362 25.587C27.6362 25.6108 27.6289 25.6341 27.6152 25.6536C27.6016 25.6731 27.5823 25.6879 27.5599 25.696L26.4309 26.103C25.8119 26.3264 25.2498 26.6834 24.7845 27.1486C24.3192 27.6139 23.9622 28.1761 23.7389 28.795L23.3319 29.924C23.3238 29.9464 23.3089 29.9657 23.2894 29.9794C23.2699 29.993 23.2467 30.0004 23.2229 30.0004C23.1991 30.0004 23.1759 29.993 23.1564 29.9794C23.1369 29.9657 23.1221 29.9464 23.1139 29.924L22.7069 28.795C22.4836 28.1761 22.1266 27.6139 21.6613 27.1486C21.196 26.6834 20.6339 26.3264 20.0149 26.103L18.8859 25.696C18.8635 25.6879 18.8442 25.6731 18.8306 25.6536C18.8169 25.6341 18.8096 25.6108 18.8096 25.587C18.8096 25.5632 18.8169 25.54 18.8306 25.5205C18.8442 25.501 18.8635 25.4862 18.8859 25.478L20.0149 25.071C20.6339 24.8477 21.196 24.4907 21.6613 24.0254C22.1266 23.5602 22.4836 22.998 22.7069 22.379L23.1139 21.25C23.1509 21.148 23.2959 21.148 23.3319 21.25Z" fill="#37623A"/>
</svg>
