<svg width="18" height="19" viewBox="0 0 18 19" fill="none" xmlns="http://www.w3.org/2000/svg">
<path fill-rule="evenodd" clip-rule="evenodd" d="M9.7454 15.9416C6.61847 16.256 5.055 16.4131 3.98592 15.5394C2.91684 14.6657 2.75964 13.1022 2.44525 9.97526C2.13086 6.84833 1.97366 5.28487 2.8474 4.21578C3.72115 3.1467 5.28461 2.98951 8.41154 2.67511C11.5385 2.36072 13.1019 2.20352 14.171 3.07727C15.2401 3.95101 15.3973 5.51448 15.7117 8.64141C16.0261 11.7683 16.1833 13.3318 15.3095 14.4009C14.4358 15.47 12.8723 15.6272 9.7454 15.9416ZM9.46196 13.1224C9.73671 13.0948 9.93705 12.8497 9.90943 12.5749L9.50927 8.59499C9.48165 8.32024 9.23652 8.1199 8.96176 8.14752C8.687 8.17515 8.48666 8.42028 8.51429 8.69503L8.91444 12.675C8.94207 12.9497 9.1872 13.1501 9.46196 13.1224ZM8.74501 5.99172C9.11135 5.95489 9.43819 6.22201 9.47502 6.58835C9.51186 6.9547 9.24474 7.28154 8.87839 7.31837C8.51205 7.3552 8.18521 7.08808 8.14838 6.72174C8.11154 6.3554 8.37867 6.02856 8.74501 5.99172Z" fill="#F1F4F0"/>
</svg>
