<svg width="27" height="27" viewBox="0 0 27 27" fill="none" xmlns="http://www.w3.org/2000/svg">
<path d="M12.4516 4.4331C10.8556 4.61018 9.33607 5.21102 8.05058 6.17333C6.76508 7.13563 5.76045 8.42434 5.1409 9.90578C4.52135 11.3872 4.30944 13.0075 4.52714 14.5984C4.74485 16.1894 5.38425 17.6931 6.37901 18.9536C7.37378 20.2142 8.68769 21.1856 10.1844 21.7672C11.6812 22.3488 13.3063 22.5193 14.8912 22.2611C16.4761 22.0029 17.963 21.3254 19.1978 20.2988C20.4326 19.2722 21.3702 17.934 21.9134 16.4229C21.9445 16.1595 21.8696 15.8945 21.7053 15.6863C21.541 15.4781 21.3007 15.3437 21.0373 15.3127L14.284 14.5169C13.7573 14.4548 13.2767 14.186 12.9481 13.7696C12.6195 13.3532 12.4698 12.8233 12.5319 12.2965L13.3511 5.34464C13.3526 5.22553 13.3305 5.10729 13.286 4.9968C13.2415 4.8863 13.1755 4.78574 13.0918 4.70095C13.0081 4.61616 12.9084 4.54882 12.7986 4.50284C12.6887 4.45687 12.5707 4.43316 12.4516 4.4331Z" stroke="#37623A" stroke-width="2" stroke-linecap="round" stroke-linejoin="round"/>
<path d="M17.3821 5.31622C18.5908 5.90883 19.6511 6.76503 20.4851 7.82175C21.319 8.87847 21.9052 10.1088 22.2006 11.4221L17.7316 10.8955C17.4682 10.8644 17.2279 10.73 17.0636 10.5218C16.8993 10.3136 16.8244 10.0487 16.8555 9.78529L17.3821 5.31622Z" stroke="#37623A" stroke-width="2" stroke-linecap="round" stroke-linejoin="round"/>
</svg>
