<svg width="280" height="20" viewBox="0 0 280 20" fill="none" xmlns="http://www.w3.org/2000/svg">
<path d="M37.3971 11.0189C38.3117 11.913 39.5524 12.476 40.9232 12.5047C40.4053 13.2597 40.1034 14.1693 40.1034 15.154C40.1034 15.6397 40.1761 16.1033 40.3128 16.5427C39.9469 16.695 39.5436 16.7811 39.1183 16.7811C37.3882 16.7811 35.98 15.3703 35.98 13.6373C35.98 13.0058 36.1673 12.423 36.4869 11.9329L36.4913 11.9285C36.8483 11.6856 37.159 11.3743 37.4015 11.0167L37.3971 11.0189Z" fill="#37623A"/>
<path d="M48.6501 15.1562C48.6501 17.2955 46.9157 19.033 44.7801 19.033C43.2793 19.033 41.9724 18.172 41.3355 16.9114C41.2716 16.7878 41.2165 16.6641 41.1702 16.5317C41.1151 16.3992 41.0732 16.2601 41.038 16.1188C40.9564 15.8119 40.9146 15.4874 40.9146 15.1562C40.9146 14.1031 41.3355 13.1494 42.0165 12.4517L42.0539 12.4142C42.173 12.3921 42.292 12.3634 42.411 12.3325C42.5388 12.295 42.6666 12.2552 42.7944 12.2089C43.3807 11.9991 43.9206 11.6901 44.3945 11.3015C44.5223 11.2882 44.6501 11.2794 44.7823 11.2794C46.9179 11.2794 48.6523 13.0169 48.6523 15.1562H48.6501Z" fill="#37623A"/>
<path d="M58.9576 16.6642C58.3758 18.5937 56.5841 20.0001 54.4706 20.0001C51.8854 20.0001 49.7852 17.8961 49.7852 15.3064C49.7852 13.7897 50.5036 12.4429 51.6188 11.5841C51.8017 11.6062 51.989 11.6172 52.1763 11.6172C53.2695 11.6172 54.281 11.2596 55.0987 10.6547C55.9185 10.7606 56.6766 11.0896 57.3092 11.5709C57.2034 11.9705 57.1483 12.3922 57.1483 12.8227C57.1483 14.3681 57.8535 15.7501 58.9598 16.6664L58.9576 16.6642Z" fill="#37623A"/>
<path d="M66.2678 12.9749C66.1863 15.1981 64.3549 16.9842 62.1135 16.9842C61.2893 16.9842 60.5223 16.7458 59.8766 16.3285C59.7488 16.2468 59.6254 16.1629 59.5064 16.0636C59.3785 15.9576 59.2551 15.8472 59.1361 15.728C58.4044 14.9774 57.957 13.9552 57.957 12.8226C57.957 12.6173 57.9703 12.4186 57.9989 12.2221C58.0254 12.0565 58.0584 11.8887 58.1003 11.732C58.1378 11.5862 58.1862 11.4427 58.2413 11.3059C58.4463 10.7782 58.7548 10.3058 59.1427 9.90394C59.8369 10.2152 60.6061 10.3896 61.4171 10.3896C62.5014 10.3896 63.513 10.0784 64.3725 9.54187C64.5091 10.935 65.2188 12.1581 66.2656 12.9749H66.2678Z" fill="#37623A"/>
<path d="M73.4766 9.04729C73.4766 11.3433 71.6143 13.2133 69.3223 13.2133C68.4958 13.2133 67.7223 12.9705 67.0765 12.5488C66.9223 12.4516 66.779 12.3457 66.638 12.2264C66.4506 12.0675 66.2765 11.8887 66.1201 11.701L66.1156 11.6966C65.7498 11.255 65.4765 10.7384 65.32 10.1732L65.3156 10.1688C65.2473 9.9326 65.2054 9.68754 65.179 9.43585C65.1658 9.3078 65.1636 9.17975 65.1636 9.04729V8.94573C65.1636 8.94573 65.1834 8.92807 65.1922 8.91924C66.1201 8.07588 66.757 6.92123 66.9531 5.62749C67.6253 5.15723 68.4451 4.88568 69.3223 4.88568C71.6143 4.88568 73.4766 6.75123 73.4766 9.04729Z" fill="#37623A"/>
<path d="M48.8839 3.69577C48.8839 3.90109 48.8575 4.09979 48.8068 4.29187C48.7164 4.6716 48.5357 5.01159 48.2889 5.29639C48.1324 5.48405 47.9451 5.64522 47.7357 5.77768C47.5946 5.8682 47.447 5.94326 47.2839 5.99846C47.015 6.10443 46.7263 6.15962 46.42 6.15962C46.3296 6.15962 46.2415 6.15521 46.1555 6.14637C46.0057 6.12871 45.8624 6.10001 45.7214 6.05586C45.5473 6.00508 45.3864 5.93664 45.2321 5.85054C44.5379 5.4708 44.0508 4.76432 43.9649 3.94304C43.9561 3.86135 43.9517 3.77746 43.9517 3.69136C43.9517 3.59863 43.9561 3.5037 43.9693 3.41539C43.9869 3.26526 44.0156 3.12176 44.0596 2.98488C44.3616 1.96711 45.3048 1.22089 46.42 1.22089C47.5351 1.22089 48.5203 2.00022 48.798 3.06215C48.8442 3.22331 48.8707 3.3911 48.8751 3.56552C48.8839 3.60746 48.8839 3.65162 48.8839 3.69357V3.69577Z" fill="#37623A"/>
<path d="M66.2042 4.7864C66.2042 4.92328 66.1998 5.05575 66.1887 5.18821C66.1711 5.40016 66.1359 5.61431 66.094 5.81742C66.094 5.82184 66.0896 5.82183 66.0896 5.82183C65.8978 6.70493 65.4615 7.4931 64.8576 8.11569C64.743 8.23491 64.6218 8.34971 64.4962 8.45127C64.4565 8.48438 64.419 8.51529 64.3772 8.54399C64.3 8.60802 64.2229 8.66762 64.1369 8.72282C64.0069 8.81775 63.8659 8.90385 63.7248 8.98333C63.0416 9.36307 62.2548 9.57501 61.4196 9.57501C60.8796 9.57501 60.3573 9.4867 59.8725 9.3167C59.7204 9.26592 59.5705 9.20632 59.4229 9.13787H59.4185C59.2818 9.07385 59.1496 9.00099 59.0218 8.92372C58.1931 8.44243 57.5209 7.71388 57.1044 6.84182C56.8069 6.21923 56.6416 5.51937 56.6416 4.7864C56.6416 4.72017 56.6416 4.64731 56.6416 4.57887C56.754 2.03555 58.8543 0 61.4174 0C63.9805 0 66.202 2.14593 66.202 4.7864H66.2042Z" fill="#37623A"/>
<path d="M45.4478 6.82852C45.461 6.97203 45.4676 7.12216 45.4676 7.27007C45.4676 8.55719 44.9167 9.72068 44.0351 10.5309C43.5767 10.957 43.028 11.2838 42.4197 11.4803C42.2875 11.5266 42.1508 11.5664 42.012 11.5951C41.8996 11.6215 41.785 11.6414 41.6704 11.6591C41.6329 11.6635 41.5955 11.6679 41.5514 11.6723C41.3861 11.6922 41.2164 11.701 41.0467 11.701C39.958 11.701 38.9574 11.3014 38.1839 10.6413C38.0649 10.542 37.9547 10.436 37.8467 10.3256C37.8224 10.3035 37.8004 10.2792 37.785 10.2572C37.7078 10.1755 37.6351 10.0916 37.5668 10.0011C37.5381 9.96353 37.5073 9.926 37.4786 9.88626C37.364 9.72951 37.256 9.55951 37.1635 9.3851C36.8571 8.82654 36.6654 8.19071 36.6279 7.51734C36.6279 7.43786 36.6235 7.35618 36.6235 7.27007C36.6235 7.15086 36.6279 7.03605 36.6368 6.92125C36.6478 6.76008 36.6698 6.60333 36.6985 6.44438C37.0863 4.39117 38.8891 2.83691 41.0467 2.83691C41.8114 2.83691 42.5299 3.0312 43.1602 3.37781C43.147 3.48378 43.1426 3.58976 43.1426 3.69573C43.1426 5.16609 44.1123 6.41568 45.4478 6.82852Z" fill="#37623A"/>
<path d="M55.8282 4.78641C55.8282 5.57237 55.9891 6.31638 56.2822 6.99416C56.1985 8.1179 55.6585 9.12022 54.8453 9.81345C54.6756 9.95917 54.4927 10.0916 54.3009 10.2064H54.2767C54.2767 10.2064 54.2723 10.2064 54.2723 10.2109C53.6508 10.5862 52.9544 10.8025 52.1742 10.8025H52.0772C51.848 10.7981 51.6277 10.7738 51.4095 10.7297C49.5009 10.3676 48.0508 8.68529 48.0508 6.67403C48.0508 6.62767 48.0508 6.58572 48.0552 6.53936C49.0359 5.97197 49.6949 4.91004 49.6949 3.69578C49.6949 3.59422 49.6927 3.48825 49.6794 3.3867C50.3715 2.85684 51.2398 2.54333 52.1742 2.54333C53.761 2.54333 55.1384 3.4463 55.8282 4.76654V4.78641Z" fill="#37623A"/>
<path d="M35.8105 7.27011C35.8105 8.43801 36.194 9.51539 36.8397 10.3852C36.8309 10.4029 36.8199 10.4184 36.8066 10.436C36.5884 10.8069 36.2777 11.1138 35.9141 11.3302C35.5262 11.5686 35.07 11.7011 34.5851 11.7011C33.1614 11.7011 32 10.5398 32 9.10695C32 7.67412 33.1614 6.51285 34.5851 6.51285C35.0369 6.51285 35.4623 6.62765 35.8325 6.83739C35.8149 6.98089 35.8105 7.1266 35.8105 7.27011Z" fill="#37623A"/>
<path d="M107.094 13.5949V13.9649L103.768 12.4501L107.094 10.9148V11.3605H111.863V8.91554H106.301V6.81607H112.049V4.22803H103.106V16.1809H112.228V13.5928H107.092L107.094 13.5949Z" fill="#27272A"/>
<path d="M126.154 4.22998L120.734 10.3444L115.298 4.22998H113.628V16.1828H116.679V9.83127L120.223 13.8973H121.254L124.798 9.83127V16.1828H127.849V4.22998H126.154Z" fill="#27272A"/>
<path d="M136.751 4.15851H135.452L129.207 16.1829H132.527L133.471 14.2572H138.749L139.68 16.1829H143.011L136.753 4.15851H136.751ZM134.536 12.0596L136.096 8.82966L137.678 12.0596H134.536Z" fill="#27272A"/>
<path d="M110.874 16.1611L110.83 16.1823V16.1421L110.874 16.1611Z" fill="#27272A"/>
<path d="M101.673 13.5948V16.1808H92.5493V4.22998H101.494V6.81598H95.7435V8.91544H98.0217V8.61698L98.6786 8.91544L101.306 10.1113V10.1522L98.6765 11.3624L98.0217 11.665V11.3624H95.7435V13.5948H101.673Z" fill="#27272A"/>
<path d="M91.1679 13.3822C91.1679 14.7928 90.6267 15.9069 89.5655 16.6898C88.5128 17.4626 87.1336 17.8571 85.4597 17.8571C83.7858 17.8571 82.3687 17.4626 81.1833 16.6878C80.5832 16.2953 80.1179 15.8067 79.7894 15.2241C79.4588 14.6394 79.2651 13.9607 79.2062 13.1962L79.1978 13.0613H82.1813L82.1961 13.1716C82.2971 13.9853 82.6572 14.5515 83.2994 14.9031C83.9542 15.2588 84.6806 15.4428 85.4576 15.4428C86.2345 15.4428 86.8641 15.2793 87.4073 14.9604C87.94 14.6476 88.1948 14.1917 88.1948 13.5682C88.1948 13.2371 88.1169 12.9406 87.9611 12.6851C87.8053 12.4316 87.54 12.2006 87.1757 12.0023C86.7967 11.7959 86.4451 11.6364 86.1293 11.5199C85.8134 11.4074 85.346 11.2562 84.7375 11.0783C83.0193 10.5529 81.7139 9.95806 80.8548 9.30594C79.9768 8.63746 79.5283 7.67461 79.5283 6.43374C79.5283 5.07839 80.0526 4.01128 81.0928 3.26308C82.1182 2.52101 83.4784 2.14282 85.1333 2.14282C86.6809 2.14282 88.0158 2.5067 89.096 3.22424C90.1888 3.952 90.8057 5.08248 90.9257 6.58502L90.9384 6.71994H88.0095L87.9948 6.61364C87.8811 5.90019 87.5547 5.36663 87.022 5.02933C86.4767 4.68589 85.8429 4.51213 85.1375 4.51213C84.4322 4.51213 83.7984 4.66749 83.2657 4.97413C82.7477 5.27055 82.4951 5.71211 82.4951 6.32131C82.4951 6.57888 82.5561 6.81806 82.6782 7.02453C82.8067 7.24327 82.9478 7.42316 83.0994 7.56218C83.2467 7.70119 83.4994 7.8402 83.8553 7.98329C84.2174 8.12844 84.5038 8.23678 84.708 8.30629C84.9122 8.37375 85.2533 8.48005 85.7524 8.62519C86.5125 8.86437 87.0789 9.0504 87.4368 9.17715C87.799 9.30594 88.2685 9.50832 88.837 9.7843C89.416 10.0644 89.8456 10.3506 90.1109 10.6327C90.3762 10.9148 90.6204 11.295 90.8352 11.7652C91.05 12.2395 91.1616 12.7812 91.1616 13.3761L91.1679 13.3822Z" fill="#27272A"/>
<path d="M155 13.3822C155 14.7928 154.463 15.9069 153.398 16.6898C152.345 17.4626 150.966 17.8571 149.296 17.8571C147.627 17.8571 146.205 17.4626 145.02 16.6878C143.82 15.9048 143.156 14.7294 143.043 13.1962L143.032 13.0613H146.018L146.031 13.1716C146.132 13.9853 146.494 14.5515 147.136 14.9031C147.787 15.2588 148.513 15.4428 149.294 15.4428C150.075 15.4428 150.699 15.2793 151.244 14.9604C151.775 14.6476 152.031 14.1917 152.031 13.5682C152.031 13.2371 151.951 12.9406 151.796 12.6851C151.64 12.4316 151.377 12.2006 151.01 12.0023C150.633 11.7959 150.28 11.6364 149.966 11.5199C149.648 11.4074 149.18 11.2562 148.572 11.0783C146.856 10.5529 145.55 9.95806 144.689 9.30594C143.811 8.63746 143.363 7.67461 143.363 6.43374C143.363 5.07839 143.889 4.01128 144.927 3.26308C145.953 2.52101 147.313 2.14282 148.968 2.14282C150.52 2.14282 151.852 2.5067 152.933 3.22424C154.023 3.952 154.642 5.08248 154.762 6.58502L154.773 6.71994H151.846L151.827 6.61364C151.713 5.88996 151.396 5.37072 150.854 5.02933C150.311 4.68589 149.677 4.51213 148.972 4.51213C148.267 4.51213 147.633 4.66749 147.1 4.97413C146.58 5.27055 146.33 5.71211 146.33 6.32131C146.33 6.57888 146.391 6.81806 146.513 7.02453C146.639 7.24327 146.782 7.42316 146.932 7.56218C147.081 7.70119 147.336 7.8402 147.688 7.98329C148.052 8.12844 148.338 8.23678 148.542 8.30629C148.745 8.37375 149.094 8.48005 149.585 8.62519C150.345 8.86437 150.911 9.0504 151.269 9.17715C151.631 9.30594 152.105 9.50832 152.674 9.7843C153.253 10.0644 153.682 10.3506 153.947 10.6327C154.213 10.9148 154.457 11.295 154.67 11.7652C154.887 12.2395 154.996 12.7812 154.996 13.3761L155 13.3822Z" fill="#27272A"/>
</svg>
