<svg width="112" height="56" viewBox="0 0 112 56" fill="none" xmlns="http://www.w3.org/2000/svg">
<path d="M43.6799 45.0077V45.4769L39.5836 43.5558L43.6799 41.6088V42.174H49.5521V39.0732H42.7025V36.4106H49.7803V33.1284H38.7695V48.2873H50.0006V45.0051H43.6773L43.6799 45.0077Z" fill="#27272A"/>
<path d="M67.1479 33.1309L60.4746 40.8853L53.7805 33.1309H51.7246V48.2897H55.4813V40.2346L59.8446 45.3912H61.115L65.4783 40.2346V48.2897H69.235V33.1309H67.1479Z" fill="#27272A"/>
<path d="M80.1965 33.04H78.5969L70.9072 48.2897H74.9957L76.1572 45.8474H82.6569L83.8028 48.2897H87.9043L80.1991 33.04H80.1965ZM77.4691 43.0604L79.3902 38.9641L81.3372 43.0604H77.4691Z" fill="#27272A"/>
<path d="M48.3337 48.2611L48.2793 48.2871V48.2378L48.3337 48.2611Z" fill="#27272A"/>
<path d="M37.0037 45.0075V48.2872H25.77V33.1309H36.7834V36.4105H29.703V39.0731H32.5082V38.6946L33.3171 39.0731L36.5526 40.5897V40.6416L33.3145 42.1764L32.5082 42.5601V42.1764H29.703V45.0075H37.0037Z" fill="#27272A"/>
<path d="M24.0695 44.738C24.0695 46.5268 23.4032 47.9398 22.0965 48.9328C20.8002 49.9128 19.102 50.4131 17.0409 50.4131C14.9798 50.4131 13.235 49.9128 11.7754 48.9302C11.0365 48.4324 10.4635 47.8128 10.0591 47.0739C9.65205 46.3324 9.41353 45.4717 9.34094 44.502L9.33057 44.3309H13.0043L13.0224 44.4709C13.1469 45.5028 13.5902 46.2209 14.3809 46.6668C15.1872 47.118 16.0817 47.3513 17.0383 47.3513C17.995 47.3513 18.7702 47.1439 19.4391 46.7394C20.095 46.3428 20.4087 45.7646 20.4087 44.9739C20.4087 44.5539 20.3128 44.178 20.1209 43.8539C19.9291 43.5324 19.6024 43.2394 19.1539 42.988C18.6872 42.7261 18.2543 42.5239 17.8654 42.3761C17.4765 42.2335 16.9009 42.0417 16.1517 41.8161C14.0361 41.1498 12.4287 40.3954 11.3709 39.5683C10.2898 38.7206 9.7376 37.4994 9.7376 35.9257C9.7376 34.2069 10.3832 32.8535 11.6639 31.9046C12.9265 30.9635 14.6013 30.4839 16.6391 30.4839C18.5446 30.4839 20.1883 30.9454 21.5183 31.8554C22.8639 32.7783 23.6235 34.212 23.7713 36.1176L23.7869 36.2887H20.1806L20.1624 36.1539C20.0224 35.2491 19.6206 34.5724 18.9646 34.1446C18.2932 33.7091 17.5128 33.4887 16.6443 33.4887C15.7758 33.4887 14.9954 33.6857 14.3395 34.0746C13.7017 34.4506 13.3906 35.0106 13.3906 35.7831C13.3906 36.1098 13.4658 36.4131 13.6161 36.675C13.7743 36.9524 13.948 37.1806 14.1346 37.3568C14.3161 37.5331 14.6272 37.7094 15.0654 37.8909C15.5113 38.075 15.8639 38.2124 16.1154 38.3006C16.3669 38.3861 16.7869 38.5209 17.4013 38.705C18.3372 39.0083 19.0346 39.2443 19.4754 39.405C19.9213 39.5683 20.4995 39.825 21.1995 40.175C21.9124 40.5302 22.4413 40.8931 22.768 41.2509C23.0946 41.6087 23.3954 42.0909 23.6598 42.6872C23.9243 43.2887 24.0617 43.9757 24.0617 44.7302L24.0695 44.738Z" fill="#27272A"/>
<path d="M102.666 44.738C102.666 46.5268 102.005 47.9398 100.694 48.9328C99.3972 49.9128 97.6991 50.4131 95.6431 50.4131C93.5872 50.4131 91.8372 49.9128 90.3776 48.9302C88.8998 47.9372 88.0831 46.4465 87.9431 44.502L87.9302 44.3309H91.6065L91.622 44.4709C91.7465 45.5028 92.1924 46.2209 92.9831 46.6668C93.7842 47.118 94.6787 47.3513 95.6405 47.3513C96.6024 47.3513 97.3698 47.1439 98.0413 46.7394C98.6946 46.3428 99.0109 45.7646 99.0109 44.9739C99.0109 44.5539 98.9124 44.178 98.7205 43.8539C98.5287 43.5324 98.2046 43.2394 97.7535 42.988C97.2894 42.7261 96.8539 42.5239 96.4676 42.3761C96.0761 42.2335 95.5005 42.0417 94.7513 41.8161C92.6383 41.1498 91.0309 40.3954 89.9705 39.5683C88.8894 38.7206 88.3372 37.4994 88.3372 35.9257C88.3372 34.2069 88.9854 32.8535 90.2635 31.9046C91.5261 30.9635 93.2009 30.4839 95.2387 30.4839C97.1494 30.4839 98.7905 30.9454 100.121 31.8554C101.464 32.7783 102.226 34.212 102.374 36.1176L102.386 36.2887H98.7828L98.7594 36.1539C98.6194 35.2361 98.228 34.5776 97.5617 34.1446C96.8928 33.7091 96.1124 33.4887 95.2439 33.4887C94.3754 33.4887 93.595 33.6857 92.9391 34.0746C92.2987 34.4506 91.9902 35.0106 91.9902 35.7831C91.9902 36.1098 92.0654 36.4131 92.2157 36.675C92.3713 36.9524 92.5476 37.1806 92.7317 37.3568C92.9157 37.5331 93.2294 37.7094 93.6624 37.8909C94.1109 38.075 94.4635 38.2124 94.715 38.3006C94.9639 38.3861 95.3942 38.5209 95.9983 38.705C96.9342 39.0083 97.6317 39.2443 98.0724 39.405C98.5183 39.5683 99.1017 39.825 99.8017 40.175C100.515 40.5302 101.044 40.8931 101.37 41.2509C101.697 41.6087 101.998 42.0909 102.259 42.6872C102.526 43.2887 102.661 43.9757 102.661 44.7302L102.666 44.738Z" fill="#27272A"/>
<path d="M37.9527 18.5265C39.0286 19.5765 40.4882 20.2376 42.1008 20.2713C41.4916 21.158 41.1364 22.2261 41.1364 23.3824C41.1364 23.9528 41.2219 24.4973 41.3827 25.0132C40.9523 25.1921 40.4779 25.2932 39.9775 25.2932C37.9423 25.2932 36.2856 23.6365 36.2856 21.6013C36.2856 20.8599 36.506 20.1754 36.8819 19.5999L36.8871 19.5947C37.3071 19.3095 37.6727 18.9439 37.9579 18.5239L37.9527 18.5265Z" fill="#37623A"/>
<path d="M51.1903 23.3851C51.1903 25.8973 49.15 27.9377 46.6377 27.9377C44.8722 27.9377 43.3348 26.9266 42.5855 25.4462C42.5103 25.301 42.4455 25.1559 42.3911 25.0003C42.3263 24.8447 42.277 24.6814 42.2355 24.5155C42.1396 24.1551 42.0903 23.774 42.0903 23.3851C42.0903 22.1484 42.5855 21.0284 43.3866 20.2092L43.4307 20.1651C43.5707 20.1392 43.7107 20.1055 43.8507 20.0692C44.0011 20.0251 44.1514 19.9784 44.3018 19.924C44.9914 19.6777 45.6266 19.3147 46.184 18.8584C46.3344 18.8429 46.4848 18.8325 46.6403 18.8325C49.1526 18.8325 51.1929 20.8729 51.1929 23.3851H51.1903Z" fill="#37623A"/>
<path d="M63.3162 25.1557C62.6318 27.4216 60.524 29.0731 58.0377 29.0731C54.9966 29.0731 52.5259 26.6023 52.5259 23.5612C52.5259 21.7801 53.3711 20.1986 54.6829 19.1901C54.8981 19.216 55.1185 19.229 55.3388 19.229C56.6248 19.229 57.8148 18.809 58.7766 18.0986C59.7411 18.2231 60.6329 18.6094 61.377 19.1746C61.2525 19.6438 61.1877 20.139 61.1877 20.6446C61.1877 22.4594 62.0174 24.0823 63.3188 25.1583L63.3162 25.1557Z" fill="#37623A"/>
<path d="M71.9158 20.8235C71.8199 23.4342 69.6655 25.5316 67.0288 25.5316C66.0592 25.5316 65.1569 25.2516 64.3973 24.7616C64.2469 24.6657 64.1018 24.5672 63.9618 24.4505C63.8114 24.3261 63.6662 24.1964 63.5262 24.0564C62.6655 23.175 62.1392 21.9746 62.1392 20.6446C62.1392 20.4035 62.1547 20.1701 62.1884 19.9394C62.2195 19.745 62.2584 19.5479 62.3077 19.3638C62.3518 19.1927 62.4088 19.0242 62.4736 18.8635C62.7147 18.2438 63.0777 17.689 63.534 17.2172C64.3506 17.5827 65.2555 17.7875 66.2095 17.7875C67.4851 17.7875 68.6751 17.422 69.6862 16.792C69.8469 18.4279 70.6818 19.8642 71.9132 20.8235H71.9158Z" fill="#37623A"/>
<path d="M80.396 16.2113C80.396 18.9076 78.2052 21.1035 75.5089 21.1035C74.5367 21.1035 73.6267 20.8183 72.8671 20.3231C72.6856 20.209 72.5171 20.0846 72.3511 19.9446C72.1308 19.7579 71.926 19.5479 71.7419 19.3276L71.7367 19.3224C71.3063 18.8038 70.9848 18.1972 70.8008 17.5335L70.7956 17.5283C70.7152 17.2509 70.666 16.9631 70.6348 16.6676C70.6193 16.5172 70.6167 16.3668 70.6167 16.2113V16.092C70.6167 16.092 70.64 16.0713 70.6504 16.0609C71.7419 15.0705 72.4911 13.7146 72.7219 12.1953C73.5126 11.6431 74.4771 11.3242 75.5089 11.3242C78.2052 11.3242 80.396 13.515 80.396 16.2113Z" fill="#37623A"/>
<path d="M51.4653 9.9268C51.4653 10.1679 51.4342 10.4012 51.3746 10.6268C51.2683 11.0727 51.0557 11.472 50.7653 11.8064C50.5812 12.0268 50.3609 12.2161 50.1146 12.3716C49.9486 12.4779 49.7749 12.5661 49.5831 12.6309C49.2668 12.7553 48.9272 12.8201 48.5668 12.8201C48.4605 12.8201 48.3568 12.815 48.2557 12.8046C48.0794 12.7838 47.9109 12.7501 47.7449 12.6983C47.5401 12.6387 47.3509 12.5583 47.1694 12.4572C46.3527 12.0112 45.7798 11.1816 45.6786 10.2172C45.6683 10.1212 45.6631 10.0227 45.6631 9.92162C45.6631 9.81273 45.6683 9.70125 45.6838 9.59755C45.7046 9.42125 45.7383 9.25273 45.7901 9.09199C46.1453 7.8968 47.2549 7.02051 48.5668 7.02051C49.8786 7.02051 51.0375 7.93569 51.3642 9.18273C51.4186 9.37199 51.4498 9.56903 51.4549 9.77384C51.4653 9.8231 51.4653 9.87495 51.4653 9.92421V9.9268Z" fill="#37623A"/>
<path d="M71.8406 11.2077C71.8406 11.3684 71.8354 11.524 71.8224 11.6795C71.8017 11.9284 71.7602 12.1799 71.7109 12.4184C71.7109 12.4236 71.7057 12.4236 71.7057 12.4236C71.4802 13.4606 70.9669 14.3862 70.2565 15.1173C70.1217 15.2573 69.9791 15.3921 69.8313 15.5114C69.7846 15.5502 69.7406 15.5865 69.6913 15.6202C69.6006 15.6954 69.5098 15.7654 69.4087 15.8302C69.2558 15.9417 69.0898 16.0428 68.9239 16.1362C68.1202 16.5821 67.1946 16.831 66.212 16.831C65.5769 16.831 64.9624 16.7273 64.392 16.5277C64.2132 16.468 64.0369 16.398 63.8632 16.3177H63.858C63.6972 16.2425 63.5417 16.1569 63.3913 16.0662C62.4165 15.501 61.6258 14.6454 61.1358 13.6214C60.7858 12.8902 60.5913 12.0684 60.5913 11.2077C60.5913 11.1299 60.5913 11.0443 60.5913 10.964C60.7235 7.97728 63.1943 5.58691 66.2095 5.58691C69.2246 5.58691 71.838 8.10691 71.838 11.2077H71.8406Z" fill="#37623A"/>
<path d="M47.4237 13.6059C47.4393 13.7744 47.447 13.9507 47.447 14.1244C47.447 15.6359 46.7989 17.0022 45.7619 17.9536C45.2226 18.454 44.577 18.8377 43.8615 19.0685C43.7059 19.1229 43.5452 19.1696 43.3819 19.2033C43.2496 19.2344 43.1148 19.2577 42.98 19.2785C42.9359 19.2836 42.8919 19.2888 42.84 19.294C42.6456 19.3173 42.4459 19.3277 42.2463 19.3277C40.9656 19.3277 39.7885 18.8585 38.8785 18.0833C38.7385 17.9666 38.6089 17.8422 38.4819 17.7125C38.4533 17.6866 38.4274 17.6581 38.4093 17.6322C38.3185 17.5362 38.233 17.4377 38.1526 17.3314C38.1189 17.2873 38.0826 17.2433 38.0489 17.1966C37.9141 17.0125 37.787 16.8129 37.6782 16.6081C37.3178 15.9522 37.0922 15.2055 37.0482 14.4148C37.0482 14.3214 37.043 14.2255 37.043 14.1244C37.043 13.9844 37.0482 13.8496 37.0585 13.7148C37.0715 13.5255 37.0974 13.3414 37.1311 13.1548C37.5874 10.7436 39.7082 8.91846 42.2463 8.91846C43.1459 8.91846 43.9911 9.1466 44.7326 9.55364C44.717 9.67809 44.7119 9.80253 44.7119 9.92698C44.7119 11.6536 45.8526 13.121 47.4237 13.6059Z" fill="#37623A"/>
<path d="M59.6346 11.2078C59.6346 12.1308 59.8239 13.0045 60.1687 13.8004C60.0702 15.12 59.435 16.2971 58.4783 17.1111C58.2787 17.2822 58.0635 17.4378 57.8379 17.5726H57.8094C57.8094 17.5726 57.8042 17.5726 57.8042 17.5778C57.0731 18.0185 56.2539 18.2726 55.3361 18.2726H55.222C54.9524 18.2674 54.6931 18.2389 54.4365 18.1871C52.1913 17.7619 50.4854 15.7863 50.4854 13.4245C50.4854 13.37 50.4854 13.3208 50.4905 13.2663C51.6442 12.6 52.4194 11.353 52.4194 9.92706C52.4194 9.8078 52.4168 9.68336 52.4013 9.5641C53.2154 8.94188 54.2368 8.57373 55.3361 8.57373C57.2028 8.57373 58.8231 9.6341 59.6346 11.1845V11.2078Z" fill="#37623A"/>
<path d="M36.0861 14.1241C36.0861 15.4956 36.5372 16.7608 37.2968 17.7823C37.2865 17.803 37.2735 17.8212 37.258 17.8419C37.0013 18.2775 36.6357 18.6378 36.208 18.8919C35.7517 19.1719 35.215 19.3275 34.6446 19.3275C32.9698 19.3275 31.6035 17.9638 31.6035 16.2812C31.6035 14.5986 32.9698 13.2349 34.6446 13.2349C35.1761 13.2349 35.6765 13.3697 36.112 13.616C36.0913 13.7845 36.0861 13.9556 36.0861 14.1241Z" fill="#37623A"/>
</svg>
