<svg width="42" height="20" viewBox="0 0 42 20" fill="none" xmlns="http://www.w3.org/2000/svg">
<path d="M5.39731 11.0189C6.31191 11.913 7.55269 12.476 8.92349 12.5047C8.40558 13.2597 8.10365 14.1693 8.10365 15.154C8.10365 15.6397 8.17638 16.1033 8.31302 16.5427C7.94718 16.695 7.54387 16.7811 7.11853 16.7811C5.38849 16.7811 3.98022 15.3703 3.98022 13.6373C3.98022 13.0058 4.16755 12.423 4.48711 11.9329L4.49152 11.9285C4.84855 11.6856 5.15929 11.3743 5.40172 11.0167L5.39731 11.0189Z" fill="#37623A"/>
<path d="M16.6502 15.1562C16.6502 17.2955 14.9158 19.033 12.7803 19.033C11.2794 19.033 9.97253 18.172 9.33561 16.9114C9.2717 16.7878 9.2166 16.6641 9.17032 16.5317C9.11522 16.3992 9.07335 16.2601 9.03809 16.1188C8.95655 15.8119 8.91467 15.4874 8.91467 15.1562C8.91467 14.1031 9.33561 13.1494 10.0166 12.4517L10.0541 12.4142C10.1731 12.3921 10.2921 12.3634 10.4111 12.3325C10.5389 12.295 10.6667 12.2552 10.7946 12.2089C11.3808 11.9991 11.9207 11.6901 12.3946 11.3015C12.5224 11.2882 12.6502 11.2794 12.7825 11.2794C14.918 11.2794 16.6524 13.0169 16.6524 15.1562H16.6502Z" fill="#37623A"/>
<path d="M26.9576 16.6642C26.3758 18.5937 24.5841 20.0001 22.4706 20.0001C19.8854 20.0001 17.7852 17.8961 17.7852 15.3064C17.7852 13.7897 18.5036 12.4429 19.6188 11.5841C19.8017 11.6062 19.989 11.6172 20.1763 11.6172C21.2695 11.6172 22.281 11.2596 23.0987 10.6547C23.9185 10.7606 24.6766 11.0896 25.3092 11.5709C25.2034 11.9705 25.1483 12.3922 25.1483 12.8227C25.1483 14.3681 25.8535 15.7501 26.9598 16.6664L26.9576 16.6642Z" fill="#37623A"/>
<path d="M34.2679 12.9749C34.1864 15.1981 32.355 16.9842 30.1136 16.9842C29.2894 16.9842 28.5225 16.7458 27.8767 16.3285C27.7489 16.2468 27.6255 16.1629 27.5065 16.0636C27.3786 15.9576 27.2552 15.8472 27.1362 15.728C26.4045 14.9773 25.9572 13.9552 25.9572 12.8226C25.9572 12.6173 25.9704 12.4186 25.999 12.2221C26.0255 12.0565 26.0585 11.8887 26.1004 11.732C26.1379 11.5862 26.1864 11.4427 26.2415 11.3059C26.4464 10.7782 26.755 10.3058 27.1428 9.90394C27.8371 10.2152 28.6062 10.3896 29.4172 10.3896C30.5015 10.3896 31.5131 10.0784 32.3726 9.54187C32.5092 10.935 33.2189 12.1581 34.2657 12.9749H34.2679Z" fill="#37623A"/>
<path d="M41.4768 9.04729C41.4768 11.3433 39.6145 13.2133 37.3225 13.2133C36.4961 13.2133 35.7225 12.9705 35.0768 12.5488C34.9225 12.4516 34.7793 12.3457 34.6382 12.2264C34.4509 12.0675 34.2768 11.8887 34.1203 11.701L34.1159 11.6966C33.75 11.255 33.4768 10.7384 33.3203 10.1732L33.3159 10.1688C33.2476 9.9326 33.2057 9.68754 33.1792 9.43585C33.166 9.3078 33.1638 9.17975 33.1638 9.04729V8.94573C33.1638 8.94573 33.1837 8.92807 33.1925 8.91924C34.1203 8.07588 34.7572 6.92123 34.9534 5.62749C35.6255 5.15723 36.4454 4.88568 37.3225 4.88568C39.6145 4.88568 41.4768 6.75123 41.4768 9.04729Z" fill="#37623A"/>
<path d="M16.8838 3.69577C16.8838 3.90109 16.8573 4.09979 16.8067 4.29187C16.7163 4.6716 16.5356 5.01159 16.2887 5.29639C16.1323 5.48405 15.9449 5.64522 15.7356 5.77768C15.5945 5.8682 15.4469 5.94326 15.2838 5.99846C15.0149 6.10443 14.7262 6.15962 14.4199 6.15962C14.3295 6.15962 14.2414 6.15521 14.1554 6.14637C14.0055 6.12871 13.8623 6.10001 13.7212 6.05586C13.5471 6.00508 13.3863 5.93664 13.232 5.85054C12.5378 5.4708 12.0507 4.76432 11.9648 3.94304C11.9559 3.86135 11.9515 3.77746 11.9515 3.69136C11.9515 3.59863 11.9559 3.5037 11.9692 3.41539C11.9868 3.26526 12.0154 3.12176 12.0595 2.98488C12.3615 1.96711 13.3047 1.22089 14.4199 1.22089C15.535 1.22089 16.5201 2.00022 16.7978 3.06215C16.8441 3.22331 16.8706 3.3911 16.875 3.56552C16.8838 3.60746 16.8838 3.65162 16.8838 3.69357V3.69577Z" fill="#37623A"/>
<path d="M34.2041 4.7864C34.2041 4.92328 34.1996 5.05575 34.1886 5.18821C34.171 5.40016 34.1357 5.61431 34.0939 5.81742C34.0939 5.82184 34.0894 5.82183 34.0894 5.82183C33.8977 6.70493 33.4613 7.4931 32.8575 8.11569C32.7429 8.23491 32.6217 8.34971 32.4961 8.45127C32.4564 8.48438 32.4189 8.51529 32.377 8.54399C32.2999 8.60802 32.2228 8.66762 32.1368 8.72282C32.0068 8.81775 31.8657 8.90385 31.7247 8.98333C31.0415 9.36307 30.2547 9.57501 29.4195 9.57501C28.8795 9.57501 28.3572 9.4867 27.8723 9.3167C27.7203 9.26592 27.5704 9.20632 27.4228 9.13787H27.4183C27.2817 9.07385 27.1495 9.00099 27.0217 8.92372C26.193 8.44243 25.5208 7.71388 25.1043 6.84182C24.8068 6.21923 24.6415 5.51937 24.6415 4.7864C24.6415 4.72017 24.6415 4.64731 24.6415 4.57887C24.7539 2.03555 26.8542 0 29.4173 0C31.9803 0 34.2018 2.14593 34.2018 4.7864H34.2041Z" fill="#37623A"/>
<path d="M13.4481 6.82852C13.4613 6.97203 13.4679 7.12216 13.4679 7.27007C13.4679 8.55719 12.9169 9.72068 12.0354 10.5309C11.577 10.957 11.0282 11.2838 10.4199 11.4803C10.2877 11.5266 10.1511 11.5664 10.0122 11.5951C9.89983 11.6215 9.78523 11.6414 9.67063 11.6591C9.63316 11.6635 9.5957 11.6679 9.55162 11.6723C9.38633 11.6922 9.21663 11.701 9.04694 11.701C7.95823 11.701 6.95767 11.3014 6.18412 10.6413C6.06511 10.542 5.95491 10.436 5.84692 10.3256C5.82268 10.3035 5.80064 10.2792 5.78521 10.2572C5.70808 10.1755 5.63535 10.0916 5.56703 10.0011C5.53838 9.96353 5.50753 9.926 5.47888 9.88626C5.36428 9.72951 5.25629 9.55951 5.16373 9.3851C4.85739 8.82654 4.66565 8.19071 4.62818 7.51734C4.62818 7.43786 4.62378 7.35618 4.62378 7.27007C4.62378 7.15086 4.62819 7.03605 4.637 6.92125C4.64802 6.76008 4.67006 6.60333 4.69871 6.44438C5.08659 4.39117 6.88935 2.83691 9.04694 2.83691C9.81168 2.83691 10.5301 3.0312 11.1604 3.37781C11.1472 3.48378 11.1428 3.58976 11.1428 3.69573C11.1428 5.16609 12.1125 6.41568 13.4481 6.82852Z" fill="#37623A"/>
<path d="M23.8282 4.78641C23.8282 5.57237 23.9891 6.31638 24.2822 6.99416C24.1985 8.1179 23.6585 9.12022 22.8453 9.81345C22.6756 9.95917 22.4927 10.0916 22.3009 10.2064H22.2767C22.2767 10.2064 22.2723 10.2064 22.2723 10.2109C21.6508 10.5862 20.9544 10.8025 20.1742 10.8025H20.0772C19.848 10.7981 19.6277 10.7738 19.4095 10.7297C17.5009 10.3676 16.0508 8.68529 16.0508 6.67403C16.0508 6.62767 16.0508 6.58572 16.0552 6.53936C17.0359 5.97197 17.6949 4.91004 17.6949 3.69578C17.6949 3.59422 17.6927 3.48825 17.6794 3.3867C18.3715 2.85684 19.2398 2.54333 20.1742 2.54333C21.761 2.54333 23.1384 3.4463 23.8282 4.76654V4.78641Z" fill="#37623A"/>
<path d="M3.81048 7.27014C3.81048 8.43804 4.19395 9.51542 4.83969 10.3853C4.83087 10.4029 4.81985 10.4184 4.80663 10.436C4.58845 10.807 4.2777 11.1138 3.91406 11.3302C3.52618 11.5686 3.06998 11.7011 2.58513 11.7011C1.16144 11.7011 0 10.5398 0 9.10698C0 7.67415 1.16144 6.51288 2.58513 6.51288C3.03693 6.51288 3.46227 6.62768 3.83252 6.83742C3.81489 6.98092 3.81048 7.12663 3.81048 7.27014Z" fill="#37623A"/>
</svg>
